<?xml version="1.0" standalone="no"?><svg xmlns="http://www.w3.org/2000/svg" viewBox="0 0 1440 320"><path fill="#0099ff" fill-opacity=".6" d="M0,192L34.3,192C68.6,192,137,192,206,165.3C274.3,139,343,85,411,90.7C480,96,549,160,617,170.7C685.7,181,754,139,823,138.7C891.4,139,960,181,1029,202.7C1097.1,224,1166,224,1234,197.3C1302.9,171,1371,117,1406,90.7L1440,64L1440,320L1405.7,320C1371.4,320,1303,320,1234,320C1165.7,320,1097,320,1029,320C960,320,891,320,823,320C754.3,320,686,320,617,320C548.6,320,480,320,411,320C342.9,320,274,320,206,320C137.1,320,69,320,34,320L0,320Z"></path></svg>